<svg width="576" height="176" viewBox="0 0 576 176" fill="none" xmlns="http://www.w3.org/2000/svg">
<g clip-path="url(#clip0_4_3)">
<ellipse cx="80.9554" cy="89.5349" rx="45.1227" ry="43.4884" fill="#FE5E5E"/>
<path d="M126.605 21.5846C129.577 19.7695 133.324 22.1668 132.743 25.5114L124.145 74.9935C123.653 77.8207 120.319 79.2505 117.87 77.684L82.4965 55.0555C80.0476 53.489 80.1198 49.9726 82.6322 48.4383L126.605 21.5846Z" fill="#FE5E5E"/>
<path d="M34.088 21.5846C31.1159 19.7695 27.3683 22.1668 27.9495 25.5114L36.5479 74.9935C37.0392 77.8207 40.3733 79.2505 42.8222 77.684L78.196 55.0555C80.6449 53.489 80.5727 49.9726 78.0603 48.4383L34.088 21.5846Z" fill="#FE5E5E"/>
<path d="M80.925 125.025H80.775C79.675 125.025 78.3 124.025 76.65 122.025C75 119.975 74.175 118.2 74.175 116.7C74.175 115.15 75.625 108.3 78.525 96.15C81.475 84 82.95 76.325 82.95 73.125C82.95 71.125 83.675 70.125 85.125 70.125C86.325 70.125 87.775 71.325 89.475 73.725C91.175 76.075 92.025 78.325 92.025 80.475C92.025 81.775 91.375 85.1 90.075 90.45C94.175 85 98.025 80.45 101.625 76.8C105.225 73.1 107.675 71.25 108.975 71.25C110.325 71.25 111.675 71.825 113.025 72.975C114.375 74.075 115.05 75.05 115.05 75.9C115.05 76.7 113.775 78.3 111.225 80.7C108.675 83.1 105.525 86.15 101.775 89.85C98.025 93.55 95.125 97 93.075 100.2C93.075 104.05 95.3 107.925 99.75 111.825C101.1 112.975 102.9 114.175 105.15 115.425C107.4 116.625 109.15 117.675 110.4 118.575C111.7 119.425 112.35 120.3 112.35 121.2C112.35 123.75 110.55 125.025 106.95 125.025C103.35 125.025 99.475 123.575 95.325 120.675C91.175 117.725 88.075 113.825 86.025 108.975C84.725 112.675 83.925 115.375 83.625 117.075C83.325 118.725 83.1 119.825 82.95 120.375C82.85 120.925 82.75 121.375 82.65 121.725C82.55 122.025 82.45 122.375 82.35 122.775C82.25 123.175 82.15 123.5 82.05 123.75C81.95 123.95 81.85 124.15 81.75 124.35C81.45 124.8 81.175 125.025 80.925 125.025ZM126.342 77.025C126.342 75.725 126.917 74.4 128.067 73.05C129.267 71.65 130.417 70.95 131.517 70.95C132.667 70.95 134.017 72.3 135.567 75C137.117 77.7 137.892 79.675 137.892 80.925C137.892 82.125 137.492 83.05 136.692 83.7C135.892 84.35 135.067 84.675 134.217 84.675C132.767 84.675 131.092 83.725 129.192 81.825C127.292 79.925 126.342 78.325 126.342 77.025ZM127.467 86.4C129.217 86.4 130.767 87.4 132.117 89.4C133.517 91.4 134.217 93.325 134.217 95.175C134.217 96.125 133.342 99.55 131.592 105.45C129.892 111.3 128.192 116.85 126.492 122.1C125.892 124.05 124.667 125.025 122.817 125.025C121.717 125.025 120.742 124.625 119.892 123.825C119.092 122.975 118.692 121.9 118.692 120.6C118.692 119.25 119.317 115.95 120.567 110.7C121.867 105.4 122.842 100.9 123.492 97.2C124.192 93.45 124.817 90.725 125.367 89.025C125.967 87.275 126.667 86.4 127.467 86.4ZM166.075 86.4C168.675 86.4 170.95 87.575 172.9 89.925C174.9 92.225 175.9 94.7 175.9 97.35C175.9 101.6 175.2 106.05 173.8 110.7C172.45 115.3 170.95 118.85 169.3 121.35C167.7 123.85 166.05 125.1 164.35 125.1C162.7 125.1 161.875 123.925 161.875 121.575C161.875 119.775 162.7 116.15 164.35 110.7C165.6 106.2 166.225 102.975 166.225 101.025C166.225 99.075 165.975 98.1 165.475 98.1C164.825 98.1 164.175 98.425 163.525 99.075C162.925 99.725 162.425 100.3 162.025 100.8C161.625 101.3 161.15 101.95 160.6 102.75C160.1 103.5 159.65 104.2 159.25 104.85C158.9 105.45 158.425 106.25 157.825 107.25C157.275 108.2 156.825 109 156.475 109.65C156.125 110.25 155.675 111.05 155.125 112.05C150.475 120.75 146.825 125.1 144.175 125.1C143.125 125.1 141.8 124.2 140.2 122.4C138.6 120.55 137.8 119.2 137.8 118.35C137.8 117.8 138.15 116.625 138.85 114.825C139.6 112.975 140.125 111.575 140.425 110.625C140.775 109.625 141.05 108.575 141.25 107.475C141.5 106.375 141.7 105.2 141.85 103.95C142 102.65 142.1 101.65 142.15 100.95C142.25 100.25 142.35 99.15 142.45 97.65C142.9 91.15 143.275 87.55 143.575 86.85C143.925 86.15 144.3 85.8 144.7 85.8C146.6 85.8 148.425 86.6 150.175 88.2C151.925 89.75 152.8 91.175 152.8 92.475C152.8 95.575 152 100.025 150.4 105.825C153.65 100.125 156.6 95.475 159.25 91.875C161.95 88.225 164.225 86.4 166.075 86.4ZM212.028 65.4C213.228 65.4 214.803 66.5 216.753 68.7C218.703 70.85 219.678 72.875 219.678 74.775C219.678 75.725 218.803 79.675 217.053 86.625C215.303 93.575 214.253 97.775 213.903 99.225C209.903 116.475 206.978 125.1 205.128 125.1C204.078 125.1 202.903 124.475 201.603 123.225C200.303 121.975 199.653 120.75 199.653 119.55C199.653 119.3 199.678 119.1 199.728 118.95C194.728 123.05 191.128 125.1 188.928 125.1C186.778 125.1 184.678 123.95 182.628 121.65C180.628 119.3 179.628 117.175 179.628 115.275C179.628 113.375 179.878 111.275 180.378 108.975C180.928 106.625 181.753 104.15 182.853 101.55C183.953 98.95 185.203 96.525 186.603 94.275C188.053 91.975 189.778 90.1 191.778 88.65C193.828 87.15 195.928 86.4 198.078 86.4C201.278 86.4 203.903 88.025 205.953 91.275C208.653 79.425 209.953 71.55 209.853 67.65C209.853 66.15 210.578 65.4 212.028 65.4ZM189.903 115.575C191.153 115.575 193.253 114.5 196.203 112.35C199.203 110.2 201.428 107.475 202.878 104.175C202.828 103.775 202.803 102.9 202.803 101.55C202.803 100.2 202.353 98.925 201.453 97.725C200.553 96.525 199.728 95.925 198.978 95.925C197.478 95.925 196.028 96.725 194.628 98.325C193.278 99.925 192.203 101.825 191.403 104.025C189.703 108.675 188.853 112.2 188.853 114.6C188.853 115 188.903 115.275 189.003 115.425C189.153 115.525 189.453 115.575 189.903 115.575ZM254.033 100.425C254.033 102.875 252.358 105.075 249.008 107.025C245.708 108.975 242.308 109.95 238.808 109.95C235.308 109.95 232.433 109.7 230.183 109.2C229.733 110.55 229.508 111.9 229.508 113.25C229.508 114.6 229.733 115.575 230.183 116.175C230.633 116.725 231.758 117 233.558 117C237.308 117 240.508 116.65 243.158 115.95C245.858 115.25 247.258 114.9 247.358 114.9C249.408 114.9 250.433 115.575 250.433 116.925C250.433 118.875 248.808 120.725 245.558 122.475C242.358 124.225 238.633 125.1 234.383 125.1C230.183 125.1 226.808 123.775 224.258 121.125C221.708 118.475 220.433 115.35 220.433 111.75C220.433 108.1 221.483 104.3 223.583 100.35C225.733 96.4 228.408 93.1 231.608 90.45C234.808 87.75 237.983 86.4 241.133 86.4C244.333 86.4 247.283 87.975 249.983 91.125C252.683 94.225 254.033 97.325 254.033 100.425ZM245.333 99.225C245.333 98.725 244.808 98 243.758 97.05C242.708 96.1 241.708 95.625 240.758 95.625C239.858 95.625 238.683 96.3 237.233 97.65C235.783 98.95 234.408 100.65 233.108 102.75C233.558 102.8 234.208 102.825 235.058 102.825C241.908 102.825 245.333 101.625 245.333 99.225ZM261.179 99.075L260.729 90.6C260.729 87.8 261.604 86.4 263.354 86.4C264.354 86.4 265.329 86.775 266.279 87.525C267.279 88.275 268.029 89.45 268.529 91.05C270.229 89.55 272.079 88.35 274.079 87.45C276.129 86.5 277.929 86.025 279.479 86.025C283.129 86.025 284.954 86.9 284.954 88.65C284.954 89.55 284.779 90.225 284.429 90.675C284.129 91.075 283.879 91.375 283.679 91.575C283.529 91.775 283.229 92.05 282.779 92.4C282.379 92.7 282.079 92.925 281.879 93.075C280.729 93.825 279.904 94.35 279.404 94.65C277.154 96.05 275.229 97.75 273.629 99.75C272.029 101.7 270.829 104.425 270.029 107.925C268.679 113.675 267.354 117.975 266.054 120.825C264.804 123.625 263.379 125.025 261.779 125.025C260.229 125.025 259.054 124.275 258.254 122.775C257.504 121.275 257.129 119.875 257.129 118.575C257.129 117.225 257.604 115.225 258.554 112.575C259.554 109.925 260.229 107.65 260.579 105.75C260.979 103.8 261.179 101.575 261.179 99.075Z" fill="black"/>
</g>
<defs>
<clipPath id="clip0_4_3">
<rect width="576" height="176" fill="white"/>
</clipPath>
</defs>
</svg>
