<svg width="162" height="155" viewBox="0 0 162 155" fill="none" xmlns="http://www.w3.org/2000/svg">
<ellipse cx="80.5" cy="77.5" rx="80.5" ry="77.5" fill="#4E31A7"/>
<ellipse cx="75" cy="87.5" rx="63" ry="60.5" fill="#B4AAD2"/>
<ellipse cx="74" cy="11.5" rx="12" ry="11.5" fill="#B4AAD2"/>
<ellipse cx="114" cy="15.5" rx="12" ry="11.5" fill="#B4AAD2"/>
<ellipse cx="150" cy="78.5" rx="12" ry="11.5" fill="#B4AAD2"/>
<ellipse cx="145" cy="43.5" rx="12" ry="11.5" fill="#B4AAD2"/>
<ellipse cx="80.9554" cy="89.5349" rx="45.1227" ry="43.4884" fill="#FE5E5E"/>
<path d="M126.605 21.5846C129.577 19.7695 133.324 22.1668 132.743 25.5114L124.145 74.9935C123.653 77.8207 120.319 79.2505 117.87 77.684L82.4965 55.0555C80.0476 53.489 80.1198 49.9726 82.6322 48.4383L126.605 21.5846Z" fill="#FE5E5E"/>
<path d="M34.088 21.5846C31.1159 19.7695 27.3683 22.1668 27.9495 25.5114L36.5479 74.9935C37.0392 77.8207 40.3733 79.2505 42.8222 77.684L78.196 55.0555C80.6449 53.489 80.5727 49.9726 78.0603 48.4383L34.088 21.5846Z" fill="#FE5E5E"/>
<path d="M70.925 114.025H70.775C69.675 114.025 68.3 113.025 66.65 111.025C65 108.975 64.175 107.2 64.175 105.7C64.175 104.15 65.625 97.3 68.525 85.15C71.475 73 72.95 65.325 72.95 62.125C72.95 60.125 73.675 59.125 75.125 59.125C76.325 59.125 77.775 60.325 79.475 62.725C81.175 65.075 82.025 67.325 82.025 69.475C82.025 70.775 81.375 74.1 80.075 79.45C84.175 74 88.025 69.45 91.625 65.8C95.225 62.1 97.675 60.25 98.975 60.25C100.325 60.25 101.675 60.825 103.025 61.975C104.375 63.075 105.05 64.05 105.05 64.9C105.05 65.7 103.775 67.3 101.225 69.7C98.675 72.1 95.525 75.15 91.775 78.85C88.025 82.55 85.125 86 83.075 89.2C83.075 93.05 85.3 96.925 89.75 100.825C91.1 101.975 92.9 103.175 95.15 104.425C97.4 105.625 99.15 106.675 100.4 107.575C101.7 108.425 102.35 109.3 102.35 110.2C102.35 112.75 100.55 114.025 96.95 114.025C93.35 114.025 89.475 112.575 85.325 109.675C81.175 106.725 78.075 102.825 76.025 97.975C74.725 101.675 73.925 104.375 73.625 106.075C73.325 107.725 73.1 108.825 72.95 109.375C72.85 109.925 72.75 110.375 72.65 110.725C72.55 111.025 72.45 111.375 72.35 111.775C72.25 112.175 72.15 112.5 72.05 112.75C71.95 112.95 71.85 113.15 71.75 113.35C71.45 113.8 71.175 114.025 70.925 114.025Z" fill="black"/>
</svg>
